<svg width="24" height="27" viewBox="0 0 24 27" fill="none" xmlns="http://www.w3.org/2000/svg">
<path d="M0.66748 9.33376C0.299479 9.33352 0.000244133 9.63169 0 9.99961V16.6671C0 17.0353 0.298503 17.3338 0.666667 17.3338C1.03483 17.3338 1.33333 17.0353 1.33333 16.6671V10.0004C1.33358 9.63242 1.0354 9.334 0.66748 9.33376ZM17.1248 3.1981L18.556 1.03558C18.7595 0.728534 18.6755 0.314635 18.3685 0.111103C18.0614 -0.0924293 17.6475 -0.00844475 17.444 0.298603L16.0304 2.43459C13.5439 0.966816 10.4561 0.966816 7.96965 2.43459L6.55599 0.298603C6.35246 -0.00844475 5.93856 -0.0924291 5.63151 0.111103C5.32446 0.314635 5.24048 0.728534 5.44401 1.03558L6.87516 3.1981C5.05339 4.71503 4 6.96315 4 9.33376V20.6671C3.99976 21.0351 4.29793 21.3335 4.66585 21.3338H8.66667V26.0004C8.66667 26.3686 8.96517 26.6671 9.33333 26.6671C9.7015 26.6671 10 26.3686 10 26.0004V21.3338H14V26.0004C14 26.3686 14.2985 26.6671 14.6667 26.6671C15.0348 26.6671 15.3333 26.3686 15.3333 26.0004V21.3338H19.3333C19.7013 21.334 19.9998 21.0358 20 20.6678V9.33376C20 6.96315 18.9466 4.71503 17.1248 3.1981ZM18.6667 20.0004H5.33333V10.6671H18.6667V20.0004ZM5.33333 9.33376C5.33333 5.65187 8.31812 2.66709 12 2.66709C15.6819 2.66709 18.6667 5.65187 18.6667 9.33376H5.33333ZM23.3341 9.33376C22.9661 9.33352 22.6669 9.63169 22.6667 9.99961V16.6671C22.6667 17.0353 22.9652 17.3338 23.3333 17.3338C23.7015 17.3338 24 17.0353 24 16.6671V10.0004C24.0002 9.63242 23.7021 9.334 23.3341 9.33376Z" fill="black"/>
</svg>
