<svg width="17" height="26" viewBox="0 0 17 26" fill="none" xmlns="http://www.w3.org/2000/svg">
<path d="M3.08348 25.6747H13.5157C14.201 25.6747 14.8583 25.4025 15.3428 24.9179C15.8274 24.4333 16.0996 23.7761 16.0996 23.0908V3.07909C16.0996 2.3938 15.8274 1.73658 15.3428 1.25201C14.8583 0.767444 14.201 0.495215 13.5157 0.495215H3.08348C2.3982 0.495215 1.74098 0.767444 1.25641 1.25201C0.771838 1.73658 0.499609 2.3938 0.499609 3.07909V23.0908C0.499609 23.7761 0.771838 24.4333 1.25641 24.9179C1.74098 25.4025 2.3982 25.6747 3.08348 25.6747ZM1.98328 1.97889C2.27508 1.6871 2.67083 1.52317 3.08348 1.52317H13.5157C13.9284 1.52317 14.3242 1.6871 14.6159 1.97889C14.9077 2.27068 15.0717 2.66643 15.0717 3.07909V23.0908C15.0717 23.5035 14.9077 23.8992 14.6159 24.191C14.3242 24.4828 13.9284 24.6467 13.5157 24.6467H3.08348C2.67083 24.6467 2.27507 24.4828 1.98328 24.191C1.69149 23.8992 1.52757 23.5035 1.52757 23.0908V3.07909C1.52757 2.66643 1.69149 2.27068 1.98328 1.97889Z" fill="black" stroke="black" stroke-width="0.2"/>
<path d="M10.4153 2.1145H6.18444C6.01975 2.1145 5.86181 2.04907 5.74535 1.93262C5.6289 1.81616 5.56348 1.65822 5.56348 1.49353C5.56348 1.32884 5.6289 1.17089 5.74535 1.05444C5.86181 0.937982 6.01975 0.872559 6.18444 0.872559H10.4153C10.58 0.872559 10.7379 0.937982 10.8544 1.05444C10.9709 1.17089 11.0363 1.32884 11.0363 1.49353C11.0363 1.65822 10.9709 1.81616 10.8544 1.93262C10.7379 2.04907 10.58 2.1145 10.4153 2.1145Z" fill="black"/>
</svg>
