<svg width="20" height="21" viewBox="0 0 20 21" fill="none" xmlns="http://www.w3.org/2000/svg">
<path d="M10 3.49994C8.61553 3.49994 7.26215 3.91048 6.11101 4.67965C4.95987 5.44882 4.06266 6.54207 3.53285 7.82115C3.00303 9.10024 2.86441 10.5077 3.13451 11.8656C3.4046 13.2234 4.07129 14.4707 5.05026 15.4497C6.02922 16.4287 7.2765 17.0953 8.63437 17.3654C9.99224 17.6355 11.3997 17.4969 12.6788 16.9671C13.9579 16.4373 15.0511 15.5401 15.8203 14.3889C16.5895 13.2378 17 11.8844 17 10.4999C17 9.58068 16.8189 8.67043 16.4672 7.82115C16.1154 6.97187 15.5998 6.2002 14.9497 5.55019C14.2997 4.90018 13.5281 4.38456 12.6788 4.03278C11.8295 3.681 10.9193 3.49994 10 3.49994ZM10 16.0999C8.89243 16.0999 7.80972 15.7715 6.88881 15.1562C5.96789 14.5408 5.25013 13.6662 4.82628 12.643C4.40243 11.6197 4.29153 10.4937 4.50761 9.40743C4.72368 8.32114 5.25703 7.32331 6.0402 6.54014C6.82338 5.75697 7.8212 5.22362 8.9075 5.00754C9.99379 4.79146 11.1198 4.90236 12.143 5.32621C13.1663 5.75006 14.0409 6.46783 14.6562 7.38874C15.2716 8.30966 15.6 9.39236 15.6 10.4999C15.6 11.9851 15.01 13.4095 13.9598 14.4597C12.9096 15.5099 11.4852 16.0999 10 16.0999Z" fill="black"/>
<path d="M10.1334 6.99994H9.86739C9.34571 6.99994 8.8454 7.20718 8.47651 7.57606C8.10763 7.94494 7.90039 8.44526 7.90039 8.96694V9.09994C7.90039 9.28559 7.97414 9.46364 8.10542 9.59491C8.23669 9.72619 8.41474 9.79994 8.60039 9.79994C8.78604 9.79994 8.96409 9.72619 9.09536 9.59491C9.22664 9.46364 9.30039 9.28559 9.30039 9.09994V8.96694C9.30039 8.81656 9.36013 8.67234 9.46646 8.56601C9.57279 8.45968 9.71701 8.39994 9.86739 8.39994H10.1334C10.2118 8.40068 10.2893 8.41751 10.361 8.44937C10.4327 8.48123 10.4971 8.52745 10.5503 8.58518C10.6034 8.64291 10.6441 8.71091 10.67 8.785C10.6958 8.85909 10.7061 8.93769 10.7004 9.01594C10.701 9.12206 10.6717 9.22621 10.6161 9.31654C10.5604 9.40688 10.4805 9.47977 10.3854 9.52694C10.0574 9.68784 9.7815 9.93813 9.58954 10.249C9.39758 10.5598 9.29735 10.9186 9.30039 11.2839C9.30039 11.4696 9.37414 11.6476 9.50542 11.7789C9.63669 11.9102 9.81474 11.9839 10.0004 11.9839C10.186 11.9839 10.3641 11.9102 10.4954 11.7789C10.6266 11.6476 10.7004 11.4696 10.7004 11.2839C10.6998 11.1778 10.729 11.0737 10.7847 10.9833C10.8404 10.893 10.9203 10.8201 11.0154 10.7729C11.4132 10.5706 11.7316 10.2407 11.9198 9.83602C12.108 9.43134 12.155 8.97526 12.0534 8.54069C11.9518 8.10612 11.7075 7.71816 11.3594 7.43885C11.0113 7.15953 10.5796 7.00499 10.1334 6.99994ZM10.4974 12.8029L10.3924 12.7189L10.2664 12.6559C10.2247 12.6346 10.1798 12.6204 10.1334 12.6139C10.0436 12.593 9.95019 12.593 9.86039 12.6139L9.73439 12.6559L9.60839 12.7189L9.50339 12.8029C9.43966 12.8695 9.38971 12.948 9.35639 13.0339C9.31936 13.1177 9.30023 13.2083 9.30023 13.2999C9.30023 13.3915 9.31936 13.4821 9.35639 13.5659C9.39184 13.6508 9.44156 13.7289 9.50339 13.7969C9.56846 13.8625 9.64588 13.9146 9.73119 13.9502C9.81649 13.9857 9.90798 14.004 10.0004 14.004C10.0928 14.004 10.1843 13.9857 10.2696 13.9502C10.3549 13.9146 10.4323 13.8625 10.4974 13.7969C10.5592 13.7289 10.6089 13.6508 10.6444 13.5659C10.6814 13.4821 10.7006 13.3915 10.7006 13.2999C10.7006 13.2083 10.6814 13.1177 10.6444 13.0339C10.6111 12.948 10.5611 12.8695 10.4974 12.8029Z" fill="black"/>
</svg>
