<svg width="24" height="24" viewBox="0 0 24 24" fill="none" xmlns="http://www.w3.org/2000/svg">
<g clip-path="url(#clip0_923_13500)">
<mask id="mask0_923_13500" style="mask-type:luminance" maskUnits="userSpaceOnUse" x="0" y="0" width="24" height="24">
<path d="M24 0H0V24H24V0Z" fill="white"/>
</mask>
<g mask="url(#mask0_923_13500)">
<path d="M24 0H0V24H24V0Z" fill="white"/>
<mask id="mask1_923_13500" style="mask-type:luminance" maskUnits="userSpaceOnUse" x="0" y="0" width="24" height="24">
<path d="M24 0H0V24H24V0Z" fill="white"/>
</mask>
<g mask="url(#mask1_923_13500)">
<path d="M21.0571 14.1948L20.2709 13.3504L20.0348 13.0968L20.0675 12.8157L20.067 12.8093L20.0727 12.7467C20.0881 12.5746 20.0986 12.3991 20.1056 12.2203C20.1059 12.2095 20.1059 12.1948 20.1057 12.1677L20.1056 12.1598L21.0571 14.1948ZM21.0571 14.1948C21.1296 14.2725 21.2193 14.3617 21.2989 14.4409C21.3322 14.474 21.3638 14.5053 21.3915 14.5334C21.4998 14.6426 21.5872 14.7363 21.6538 14.8223C21.6864 14.8644 21.7078 14.8969 21.7217 14.9205L20.9231 16.8388C20.8965 16.8456 20.8579 16.8535 20.8044 16.8601C20.6964 16.8735 20.5681 16.8776 20.4144 16.8778C20.3746 16.8779 20.3297 16.8776 20.2822 16.8773C20.1703 16.8767 20.0443 16.8759 19.9389 16.8792L18.786 16.9163L18.4482 16.9271L18.2636 17.15L18.2267 17.1825L18.2035 17.2159L18.1829 17.2407C18.0912 17.351 17.9945 17.4592 17.8951 17.566C17.8555 17.6072 17.8251 17.6371 17.7897 17.6719C17.7616 17.6996 17.7303 17.7304 17.6885 17.7725C17.6273 17.832 17.6111 17.8503 17.6009 17.8619C17.5922 17.8716 17.5878 17.8765 17.5644 17.8973L17.5397 17.9191L17.5278 17.9317C17.5275 17.932 17.5272 17.9322 17.5269 17.9325L17.4992 17.9564C17.4926 17.9621 17.4849 17.9689 17.4764 17.9766C17.4724 17.9799 17.4675 17.9839 17.4624 17.9882C17.448 18.0005 17.4266 18.0191 17.402 18.0438C17.3182 18.1201 17.2393 18.1907 17.1601 18.2568L16.9025 18.4717L16.891 18.8069L16.8514 19.956M21.0571 14.1948L20.1057 12.0675C20.1071 11.9353 20.1052 11.8098 20.0994 11.6862V11.6849C20.0969 11.6295 20.0939 11.5774 20.0902 11.52L20.0895 11.5088L20.0891 11.4977C20.0861 11.4126 20.0818 11.3292 20.0754 11.241L20.0518 10.9129L20.277 10.6733L21.0647 9.83559C21.1372 9.7584 21.2268 9.66969 21.3065 9.59087C21.3404 9.55734 21.3725 9.5256 21.4007 9.4973C21.5093 9.38827 21.5968 9.29479 21.6635 9.20914C21.6967 9.16635 21.7184 9.13408 21.7322 9.11105L20.9404 7.18965C20.9145 7.18317 20.8768 7.17572 20.8237 7.169C20.7163 7.15538 20.5884 7.15099 20.4345 7.15038C20.3954 7.15022 20.3514 7.15036 20.3049 7.15052C20.192 7.15089 20.0645 7.15131 19.957 7.14756L18.8056 7.10603L18.4716 7.09398L18.2573 6.83759C18.2073 6.77784 18.1607 6.7268 18.1039 6.66457C18.074 6.63182 18.0412 6.59596 18.0037 6.5541C17.9933 6.54247 17.9848 6.53235 17.9789 6.52518C17.96 6.50411 17.9444 6.48568 17.9357 6.47536L17.9326 6.47171C17.9251 6.46287 17.9213 6.45859 17.92 6.45707L17.9144 6.45136L17.9064 6.44259C17.8807 6.41469 17.8732 6.40778 17.8611 6.39673C17.8473 6.38414 17.8277 6.36619 17.7687 6.30567C17.7515 6.28836 17.7353 6.27194 17.7198 6.25623C17.6637 6.19956 17.6167 6.15204 17.5671 6.10489L17.5634 6.10145C17.4633 6.00508 17.3564 5.91245 17.233 5.8056C17.2276 5.80145 17.2215 5.79669 17.2149 5.7914L17.1877 5.7694L17.1626 5.74495C17.1509 5.73351 17.1413 5.72357 17.1348 5.7166L17.1276 5.70885L16.9261 5.50738L16.9166 5.21096L16.8794 4.05842L16.8793 4.05742C16.8761 3.95171 16.8769 3.82565 16.8776 3.71367C16.8779 3.66643 16.8782 3.62169 16.8781 3.58205C16.878 3.4285 16.8739 3.30056 16.8606 3.19286C16.8541 3.14012 16.8464 3.10196 16.8397 3.07553L14.9218 2.27737C14.8982 2.29128 14.8654 2.31288 14.823 2.34576C14.737 2.41235 14.6432 2.49977 14.534 2.60794C14.5058 2.63586 14.4742 2.6676 14.4409 2.70111C14.3619 2.78058 14.2729 2.87003 14.1956 2.94221L13.3525 3.72937L13.104 3.9613L12.7659 3.92742C12.5992 3.91073 12.4292 3.90162 12.2471 3.89461C12.2238 3.89369 12.2018 3.89384 12.161 3.89416C12.1489 3.89426 12.1351 3.89437 12.1191 3.89446L12.1081 3.89453C12.0708 3.89421 12.0371 3.89369 12.0058 3.89327C11.9184 3.89211 11.8502 3.89121 11.7758 3.89409L11.7706 3.89429C11.6287 3.8988 11.4852 3.90769 11.3405 3.92025L11.3273 3.9214L11.3141 3.92208C11.3036 3.92262 11.2943 3.92297 11.2872 3.92321L10.9552 3.98861L10.6744 3.72429L9.83742 2.93626C9.83715 2.936 9.83687 2.93574 9.8366 2.93549C9.75828 2.86219 9.66889 2.77191 9.58962 2.69186C9.55705 2.65897 9.5262 2.62781 9.49852 2.60026C9.38934 2.49158 9.29573 2.40385 9.20984 2.33697C9.16676 2.30343 9.13429 2.28163 9.11113 2.26773L7.19082 3.0591C7.18433 3.08512 7.17685 3.123 7.17013 3.17627C7.15651 3.28411 7.15213 3.41217 7.15146 3.56636C7.15129 3.60462 7.1514 3.64741 7.15151 3.69255C7.15181 3.80633 7.15214 3.93507 7.14814 4.04405M16.8514 19.956C16.8476 20.0625 16.8479 20.1893 16.8482 20.3017C16.8483 20.3489 16.8484 20.3935 16.8482 20.4331C16.8474 20.587 16.8429 20.7149 16.8291 20.8225C16.8222 20.8763 16.8146 20.9143 16.808 20.9403L14.8866 21.7321C14.8638 21.7183 14.8319 21.6968 14.7899 21.664C14.7045 21.5973 14.6112 21.5097 14.5023 21.4009C14.4744 21.3731 14.4434 21.3417 14.4106 21.3084C14.3313 21.2281 14.242 21.1376 14.1638 21.0642L14.163 21.0634L13.3229 20.2765L13.0877 20.0562L12.7659 20.0752C12.6767 20.0804 12.5891 20.0848 12.4979 20.0888L12.4876 20.0894C12.4595 20.091 12.4366 20.0924 12.4165 20.0937C12.3806 20.096 12.3537 20.0977 12.322 20.0987L12.3132 20.0991C12.1859 20.1049 12.0629 20.1073 11.9439 20.1045L11.9363 20.1044L11.9287 20.1043C11.881 20.1042 11.8554 20.1046 11.8351 20.1049C11.8149 20.1052 11.8001 20.1054 11.7743 20.105C11.7611 20.1044 11.7462 20.1036 11.7222 20.1022C11.7036 20.1011 11.6792 20.0998 11.6523 20.0987C11.6286 20.0967 11.6087 20.0957 11.5975 20.0952L11.5964 20.0951L11.5774 20.0941C11.5753 20.094 11.5741 20.0939 11.5738 20.0939L11.5615 20.0929L11.5489 20.0922C11.53 20.0913 11.5121 20.0904 11.4952 20.0895C11.4031 20.0849 11.3369 20.0817 11.269 20.0741L11.2347 20.0703L11.2002 20.0697C11.18 20.0693 11.1627 20.0698 11.1513 20.0702M16.8514 19.956L17.6009 19.9823M7.14814 4.04405C7.14814 4.04419 7.14814 4.04392 7.14814 4.04405ZM7.14814 4.04405L7.10735 5.19558L7.0947 5.55289L6.83927 5.74534L6.82514 5.75926L6.80118 5.77923C6.67553 5.88397 6.55391 5.99068 6.43689 6.10038C6.40541 6.13141 6.37512 6.16221 6.34024 6.19767C6.33022 6.20786 6.31982 6.21843 6.3089 6.22951L6.30355 6.23494L6.29809 6.24026C6.21016 6.32591 6.12701 6.40937 6.04997 6.49226C6.02743 6.51689 6.01084 6.5362 5.98845 6.56226C5.97313 6.58009 5.95509 6.60109 5.93056 6.62912L5.92421 6.63638L5.91767 6.64347C5.85759 6.70868 5.80905 6.76209 5.76359 6.81646L5.54765 7.07469L5.21119 7.08499L4.05844 7.12027M4.05844 7.12027C4.05829 7.12028 4.0586 7.12026 4.05844 7.12027ZM4.05844 7.12027C3.95266 7.12356 3.82619 7.1228 3.71428 7.12211C3.66715 7.12182 3.62253 7.12154 3.58296 7.12159C3.42939 7.12179 3.30145 7.12585 3.19375 7.13916C3.14097 7.14569 3.1028 7.15338 3.07636 7.1601L2.27762 9.07847C2.29142 9.10147 2.31289 9.13352 2.3457 9.17587C2.41213 9.2616 2.49938 9.35514 2.6075 9.46419C2.63524 9.49218 2.66675 9.5235 2.70002 9.55657C2.77962 9.63568 2.86931 9.72483 2.94179 9.8025L3.72912 10.6458L3.96028 10.8934L3.92736 11.2305C3.91854 11.3209 3.91384 11.4093 3.90807 11.5177C3.90705 11.537 3.90599 11.5569 3.90487 11.5776C3.90456 11.5876 3.90414 11.596 3.90376 11.6026L3.90341 11.6079L3.90268 11.6231C3.89254 11.8358 3.88807 12.0366 3.89479 12.2308C3.89713 12.2936 3.90104 12.3527 3.90574 12.4238C3.90729 12.4472 3.90892 12.4719 3.91061 12.4985C3.91578 12.5708 3.91708 12.604 3.91809 12.6298C3.91909 12.6556 3.91981 12.674 3.92383 12.7167L3.92924 12.7742L3.92917 12.7754L3.9636 13.0681L3.72496 13.3225L2.93614 14.1633M2.93614 14.1633C2.93607 14.1634 2.93621 14.1632 2.93614 14.1633ZM2.93614 14.1633C2.86245 14.2419 2.77142 14.3318 2.69097 14.4113C2.65824 14.4436 2.62722 14.4742 2.59978 14.5017C2.49101 14.6107 2.40326 14.704 2.33639 14.7897C2.30326 14.8321 2.28162 14.8642 2.26772 14.8872L3.05918 16.8077C3.08527 16.8142 3.12346 16.8219 3.17736 16.8288C3.28519 16.8425 3.41328 16.847 3.56731 16.8478C3.60621 16.848 3.64988 16.8479 3.69598 16.8478C3.80884 16.8476 3.93624 16.8474 4.04376 16.8513M4.04376 16.8513C4.04406 16.8513 4.04346 16.8513 4.04376 16.8513ZM4.04376 16.8513L5.19423 16.8903L5.57425 16.9032L5.76428 17.1819C5.76903 17.1876 5.77406 17.1937 5.77932 17.2004C5.88209 17.3233 5.99208 17.4461 6.11075 17.5741C6.11763 17.5815 6.12728 17.5912 6.15049 17.6135L6.15661 17.6194C6.17588 17.6379 6.20601 17.6669 6.23643 17.6984C6.32282 17.7861 6.4053 17.8681 6.48822 17.9463C6.49021 17.948 6.49224 17.9498 6.4943 17.9516C6.53418 17.9861 6.5856 18.0306 6.6357 18.0767C6.66006 18.0983 6.68058 18.1166 6.69865 18.1328C6.74153 18.1712 6.77064 18.1972 6.80487 18.2247L7.07439 18.4411L7.08492 18.7866L7.12002 19.9389M7.12002 19.9389C7.12003 19.9391 7.12001 19.9386 7.12002 19.9389ZM7.12002 19.9389C7.12332 20.0444 7.12263 20.1709 7.12199 20.2827C7.12172 20.33 7.12146 20.3748 7.12153 20.4145C7.1218 20.5683 7.12593 20.6965 7.13932 20.8046C7.14595 20.8581 7.15377 20.8967 7.1606 20.9234L9.07919 21.722C9.10213 21.7082 9.13408 21.6868 9.17626 21.6541C9.26196 21.5876 9.35546 21.5004 9.46452 21.3922C9.49239 21.3645 9.52353 21.3332 9.55642 21.3001C9.63565 21.2203 9.725 21.1304 9.80295 21.0576L10.6478 20.2714L10.8697 20.0649L11.1513 20.0702M11.1513 20.0702C11.1514 20.0702 11.1511 20.0703 11.1513 20.0702ZM3.0107 16.791C3.01104 16.7908 3.01435 16.7921 3.01965 16.7954C3.01302 16.7928 3.01037 16.7911 3.0107 16.791ZM2.24471 14.9336C2.24436 14.9337 2.24508 14.9307 2.24795 14.9241C2.2465 14.9302 2.24507 14.9335 2.24471 14.9336ZM2.25467 9.03176C2.25502 9.03188 2.25644 9.03518 2.25787 9.04129C2.25503 9.0347 2.25432 9.03165 2.25467 9.03176ZM3.02765 7.17614C3.02767 7.17613 3.02763 7.17615 3.02765 7.17614ZM7.20754 3.01003C7.20771 3.01037 7.20638 3.01372 7.20306 3.01907C7.20571 3.01237 7.20738 3.0097 7.20754 3.01003ZM9.0745 2.24826C9.06843 2.24684 9.06517 2.24543 9.06505 2.24508C9.06494 2.24473 9.06797 2.24544 9.0745 2.24826ZM16.9281 3.11229C16.928 3.11228 16.9282 3.11231 16.9281 3.11229ZM17.2744 5.83507C17.2739 5.83474 17.2727 5.83394 17.2713 5.83298L17.2725 5.83377L17.2744 5.83507ZM20.9892 7.20631C20.9888 7.20648 20.9855 7.20515 20.9801 7.20182C20.9868 7.20448 20.9895 7.20614 20.9892 7.20631ZM21.7547 9.06514C21.7551 9.06503 21.7544 9.06807 21.7515 9.07462C21.753 9.06853 21.7544 9.06525 21.7547 9.06514ZM9.04195 21.7418C9.03534 21.7447 9.03228 21.7454 9.0324 21.7451C9.03252 21.7447 9.03583 21.7433 9.04195 21.7418ZM9.16654 21.7584C9.16672 21.7585 9.16636 21.7583 9.16654 21.7584ZM14.9234 21.7518C14.9296 21.7533 14.9329 21.7547 14.933 21.7551C14.9331 21.7554 14.9301 21.7547 14.9234 21.7518ZM16.7959 20.9796C16.7932 20.9862 16.7915 20.9889 16.7914 20.9886C16.7912 20.9882 16.7925 20.9849 16.7959 20.9796Z" stroke="#808080" stroke-width="1.5"/>
<path d="M15.9164 12.0002C15.9164 14.1632 14.1627 15.9169 11.9997 15.9169C9.83666 15.9169 8.08301 14.1632 8.08301 12.0002C8.08301 9.83715 9.83666 8.0835 11.9997 8.0835C14.1627 8.0835 15.9164 9.83715 15.9164 12.0002Z" fill="white" stroke="#808080" stroke-width="1.5" stroke-linecap="round" stroke-linejoin="round"/>
</g>
</g>
</g>
<defs>
<clipPath id="clip0_923_13500">
<rect width="24" height="24" fill="white"/>
</clipPath>
</defs>
</svg>
