<svg width="32" height="33" viewBox="0 0 32 33" fill="none" xmlns="http://www.w3.org/2000/svg">
<rect y="0.5" width="32" height="32" rx="16" fill="#F2F3F5"/>
<path fill-rule="evenodd" clip-rule="evenodd" d="M11.417 23.0835H17.3337C19.1286 23.0835 20.5837 21.6284 20.5837 19.8335V9.91683H11.417V23.0835ZM12.5837 21.9168V11.0835H19.417V19.8335C19.417 20.9841 18.4843 21.9168 17.3337 21.9168H12.5837Z" fill="#161F36"/>
<path fill-rule="evenodd" clip-rule="evenodd" d="M13.75 14.1668C13.75 13.8447 14.0112 13.5835 14.3333 13.5835L17.6667 13.5835C17.9888 13.5835 18.25 13.8447 18.25 14.1668C18.25 14.489 17.9888 14.7502 17.6667 14.7502L14.3333 14.7502C14.0112 14.7502 13.75 14.489 13.75 14.1668Z" fill="#161F36"/>
<path fill-rule="evenodd" clip-rule="evenodd" d="M13.75 16.5001C13.75 16.1779 14.0112 15.9167 14.3333 15.9167H17.6667C17.9888 15.9167 18.25 16.1779 18.25 16.5001C18.25 16.8222 17.9888 17.0834 17.6667 17.0834H14.3333C14.0112 17.0834 13.75 16.8222 13.75 16.5001Z" fill="#161F36"/>
<path fill-rule="evenodd" clip-rule="evenodd" d="M13.75 18.8333C13.75 18.5112 14.0112 18.25 14.3333 18.25H16.3333C16.6555 18.25 16.9167 18.5112 16.9167 18.8333C16.9167 19.1555 16.6555 19.4167 16.3333 19.4167H14.3333C14.0112 19.4167 13.75 19.1555 13.75 18.8333Z" fill="#161F36"/>
</svg>
