<svg width="32" height="32" viewBox="0 0 32 32" fill="none" xmlns="http://www.w3.org/2000/svg">
<rect width="32" height="32" rx="16" fill="#F2F3F5"/>
<g clip-path="url(#clip0_3420_2175)">
<path fill-rule="evenodd" clip-rule="evenodd" d="M16 8.75C16.3222 8.75 16.5833 9.01117 16.5833 9.33333V12.6667H15.4167V9.33333C15.4167 9.01117 15.6778 8.75 16 8.75ZM10.9209 10.9209C11.1487 10.693 11.518 10.693 11.7458 10.9209L15.1583 14.3333L14.3333 15.1583L10.9209 11.7458C10.693 11.518 10.693 11.1487 10.9209 10.9209ZM21.0791 11.7458L17.6667 15.1583L16.8417 14.3333L20.2542 10.9209L21.0791 11.7458ZM8.75 16C8.75 15.6778 9.01117 15.4167 9.33333 15.4167H12.6667V16.5833H9.33333C9.01117 16.5833 8.75 16.3222 8.75 16ZM22.6667 16.5833H19.3333V15.4167H22.6667C22.9888 15.4167 23.25 15.6778 23.25 16C23.25 16.3222 22.9888 16.5833 22.6667 16.5833ZM15.1583 17.6667L11.7458 21.0791C11.518 21.307 11.1487 21.307 10.9209 21.0791C10.693 20.8513 10.693 20.482 10.9209 20.2542L14.3333 16.8417L15.1583 17.6667ZM17.6667 16.8417L21.0791 20.2542L20.2542 21.0791L16.8417 17.6667L17.6667 16.8417ZM15.4167 22.6667V19.3333H16.5833V22.6667C16.5833 22.9888 16.3222 23.25 16 23.25C15.6778 23.25 15.4167 22.9888 15.4167 22.6667Z" fill="#161F36"/>
</g>
<defs>
<clipPath id="clip0_3420_2175">
<rect width="16" height="16" fill="white" transform="translate(8 8)"/>
</clipPath>
</defs>
</svg>
