<svg width="32" height="32" viewBox="0 0 32 32" fill="none" xmlns="http://www.w3.org/2000/svg">
<rect width="32" height="32" rx="16" fill="#F2F3F5"/>
<path fill-rule="evenodd" clip-rule="evenodd" d="M15.7477 8.87164C15.9139 8.83747 16.0852 8.83747 16.2514 8.87164C16.4428 8.911 16.6144 9.007 16.762 9.08956C16.7752 9.0969 16.7881 9.10415 16.8009 9.11123L21.7342 11.852C21.7477 11.8595 21.7614 11.8671 21.7754 11.8748C21.9316 11.9609 22.1131 12.061 22.2521 12.2119C22.3039 12.2682 22.3504 12.3289 22.3909 12.3933C22.4446 12.4787 22.488 12.5705 22.5198 12.6668C22.5841 12.8616 22.5835 13.0689 22.583 13.2473C22.5829 13.2632 22.5829 13.2789 22.5829 13.2943V18.7057C22.5829 18.7212 22.5829 18.7369 22.583 18.7528C22.5835 18.9312 22.5841 19.1385 22.5198 19.3333C22.4639 19.5022 22.3727 19.6573 22.2521 19.7882C22.1131 19.939 21.9316 20.0392 21.7754 20.1253C21.7614 20.133 21.7477 20.1406 21.7342 20.1481L16.8009 22.8888C16.7881 22.8959 16.7752 22.9032 16.762 22.9105C16.6144 22.9931 16.4428 23.0891 16.2514 23.1284C16.0852 23.1626 15.9139 23.1626 15.7477 23.1284C15.5563 23.0891 15.3847 22.9931 15.2371 22.9105C15.2239 22.9032 15.211 22.8959 15.1982 22.8888L10.2649 20.1481C10.2514 20.1406 10.2377 20.133 10.2237 20.1253C10.0675 20.0392 9.88602 19.939 9.747 19.7882C9.62641 19.6573 9.53514 19.5022 9.47932 19.3333C9.41496 19.1385 9.41558 18.9312 9.41611 18.7528C9.41616 18.7369 9.41621 18.7212 9.41621 18.7057V13.2943C9.41621 13.2789 9.41616 13.2632 9.41611 13.2473C9.41558 13.0689 9.41496 12.8616 9.47932 12.6668C9.51114 12.5705 9.55447 12.4787 9.60818 12.3933C9.64871 12.3289 9.69514 12.2682 9.747 12.2119C9.88602 12.061 10.0675 11.9609 10.2237 11.8748C10.2376 11.8671 10.2514 11.8595 10.2649 11.852L15.1982 9.11123C15.211 9.10415 15.2239 9.0969 15.2371 9.08955C15.3847 9.007 15.5563 8.911 15.7477 8.87164ZM15.9875 10.0135C15.9832 10.0152 15.9745 10.0189 15.9602 10.0258C15.919 10.0457 15.865 10.0754 15.7648 10.1311L11.2145 12.659L14.1598 14.3107C14.4408 14.4682 14.5409 14.8238 14.3833 15.1048C14.2257 15.3858 13.8702 15.4858 13.5892 15.3283L10.5829 13.6424V18.7057C10.5829 18.8268 10.5831 18.8921 10.586 18.9404C10.587 18.9573 10.5882 18.9672 10.5889 18.9721C10.592 18.9799 10.5963 18.9872 10.6015 18.9937C10.6055 18.9966 10.6136 19.0024 10.6279 19.0115C10.6687 19.0375 10.7257 19.0695 10.8315 19.1282L15.4162 21.6753L15.4162 16C15.4162 15.7882 15.531 15.593 15.7162 15.4901L18.5471 13.9174L18.5496 13.916L20.7855 12.6595L16.2343 10.1311C16.1341 10.0754 16.0801 10.0457 16.0389 10.0258C16.0246 10.0189 16.0159 10.0152 16.0116 10.0135C16.0036 10.0124 15.9955 10.0124 15.9875 10.0135ZM21.4162 13.6434V18.7057C21.4162 18.8268 21.416 18.8921 21.4131 18.9404C21.412 18.9573 21.4109 18.9672 21.4102 18.9721C21.4071 18.9799 21.4028 18.9872 21.3976 18.9937C21.3936 18.9966 21.3855 19.0024 21.3712 19.0115C21.3304 19.0375 21.2734 19.0695 21.1676 19.1282L16.5829 21.6753L16.5829 16.3433L19.1161 14.9359L21.4162 13.6434Z" fill="#161F36"/>
</svg>
