<svg width="32" height="32" viewBox="0 0 32 32" fill="none" xmlns="http://www.w3.org/2000/svg">
<rect width="32" height="32" rx="16" fill="#F2F3F5"/>
<path fill-rule="evenodd" clip-rule="evenodd" d="M16.7493 8.75H21.3327C21.6549 8.75 21.916 9.01117 21.916 9.33333C21.916 9.6555 21.6549 9.91667 21.3327 9.91667H17.916L17.916 13.3333C17.916 13.6555 17.6549 13.9167 17.3327 13.9167C17.0105 13.9167 16.7493 13.6555 16.7493 13.3333L16.7493 8.75ZM15.2349 10.02C15.3062 10.3342 15.1093 10.6467 14.7951 10.718C13.8331 10.9362 12.9193 11.4196 12.1692 12.1697C10.0538 14.285 10.0538 17.7147 12.1692 19.83L12.5817 20.2425L11.7567 21.0675L11.3442 20.655C8.77328 18.084 8.77328 13.9157 11.3442 11.3447C12.2545 10.4345 13.3666 9.84576 14.5369 9.58021C14.8511 9.50893 15.1636 9.70583 15.2349 10.02ZM20.242 10.9324L20.6545 11.3449C23.2254 13.9158 23.2254 18.0842 20.6545 20.6551C19.7442 21.5654 18.6321 22.1541 17.4618 22.4197C17.1476 22.4909 16.8351 22.294 16.7638 21.9799C16.6925 21.6657 16.8894 21.3532 17.2036 21.2819C18.1656 21.0636 19.0794 20.5803 19.8295 19.8302C21.9449 17.7148 21.9449 14.2852 19.8295 12.1698L19.417 11.7574L20.242 10.9324ZM14.666 18.0833C14.9882 18.0833 15.2493 18.3445 15.2493 18.6667L15.2493 23.2499L10.666 23.25C10.3439 23.25 10.0827 22.9889 10.0827 22.6667C10.0827 22.3445 10.3438 22.0833 10.666 22.0833L14.0827 22.0832L14.0827 18.6667C14.0827 18.3445 14.3439 18.0833 14.666 18.0833Z" fill="#161F36"/>
</svg>
