<svg width="32" height="32" viewBox="0 0 32 32" fill="none" xmlns="http://www.w3.org/2000/svg">
<rect width="32" height="32" rx="16" fill="#F2F3F5"/>
<path fill-rule="evenodd" clip-rule="evenodd" d="M18.9203 22.7458C19.1481 22.9736 19.5174 22.9736 19.7452 22.7458L23.4911 19L19.7452 15.2542C19.5174 15.0264 19.1481 15.0264 18.9203 15.2542C18.6925 15.482 18.6925 15.8513 18.9203 16.0791L21.8411 19L18.9203 21.9208C18.6925 22.1487 18.6925 22.518 18.9203 22.7458ZM14.0828 19C14.0828 19.3222 14.3439 19.5833 14.6661 19.5833H19.9161V18.4167H14.6661C14.3439 18.4167 14.0828 18.6778 14.0828 19ZM13.0786 16.7458C13.3064 16.518 13.3064 16.1486 13.0786 15.9208L10.1577 13L13.0786 10.0791C13.3064 9.85133 13.3064 9.48198 13.0786 9.25418C12.8508 9.02637 12.4814 9.02637 12.2536 9.25418L8.50781 13L12.2536 16.7458C12.4814 16.9736 12.8508 16.9736 13.0786 16.7458ZM12.0828 13.5833H17.3328C17.6549 13.5833 17.9161 13.3222 17.9161 13C17.9161 12.6778 17.6549 12.4167 17.3328 12.4167H12.0828V13.5833Z" fill="#161F36"/>
</svg>
