  <svg width="25" height="24" viewBox="0 0 25 24" fill="none" xmlns="http://www.w3.org/2000/svg">
      <path d="M13.4504 10.6153H13.4688V10.5864L13.4504 10.6153ZM13.4504 10.6153H13.4688V10.5864L13.4504 10.6153ZM13.4504 10.6153H13.4688V10.5864L13.4504 10.6153ZM13.4504 10.6153H13.4688V10.5864L13.4504 10.6153ZM13.4504 10.6153H13.4688V10.5864L13.4504 10.6153ZM13.4504 10.6153H13.4688V10.5864L13.4504 10.6153ZM13.4504 10.6153H13.4688V10.5864L13.4504 10.6153ZM13.4504 10.6153H13.4688V10.5864L13.4504 10.6153ZM13.4504 10.6153H13.4688V10.5864L13.4504 10.6153ZM13.4504 10.6153H13.4688V10.5864L13.4504 10.6153ZM13.4504 10.6153H13.4688V10.5864L13.4504 10.6153ZM13.4504 10.6153H13.4688V10.5864L13.4504 10.6153ZM13.4504 10.6153H13.4688V10.5864L13.4504 10.6153ZM13.4504 10.6153H13.4688V10.5864L13.4504 10.6153ZM13.4504 10.6153H13.4688V10.5864L13.4504 10.6153ZM13.4504 10.6153H13.4688V10.5864L13.4504 10.6153ZM12.2549 0C9.88151 0 7.56143 0.703787 5.58804 2.02236C3.61465 3.34094 2.07659 5.21508 1.16833 7.4078C0.260082 9.60051 0.0224423 12.0133 0.485465 14.3411C0.948487 16.6689 2.09138 18.807 3.76961 20.4853C5.44784 22.1635 7.58603 23.3064 9.9138 23.7694C12.2416 24.2324 14.6544 23.9948 16.8471 23.0865C19.0398 22.1783 20.9139 20.6402 22.2325 18.6668C23.5511 16.6935 24.2549 14.3734 24.2549 12C24.2514 8.81847 22.986 5.76824 20.7363 3.51856C18.4866 1.26888 15.4364 0.00347747 12.2549 0ZM9.25423 17.4022C9.25354 17.4554 9.23192 17.5062 9.19405 17.5436C9.15618 17.581 9.10512 17.6019 9.05191 17.6019H6.73967C6.68671 17.6019 6.63591 17.5809 6.59846 17.5434C6.56101 17.506 6.53998 17.4552 6.53998 17.4022V9.63258C6.53963 9.60614 6.54454 9.57989 6.55442 9.55535C6.5643 9.53082 6.57895 9.5085 6.59753 9.48967C6.61611 9.47085 6.63824 9.45591 6.66264 9.44571C6.68704 9.43551 6.71322 9.43026 6.73967 9.43026H9.05191C9.07848 9.43026 9.10479 9.43549 9.12933 9.44566C9.15388 9.45583 9.17618 9.47073 9.19497 9.48952C9.21376 9.5083 9.22866 9.53061 9.23883 9.55515C9.249 9.5797 9.25423 9.60601 9.25423 9.63258V17.4022ZM7.81434 8.39238C7.52695 8.39238 7.24602 8.30716 7.00707 8.1475C6.76812 7.98784 6.58188 7.7609 6.47191 7.4954C6.36193 7.22989 6.33316 6.93773 6.38922 6.65587C6.44529 6.37401 6.58368 6.11511 6.78689 5.9119C6.9901 5.70869 7.249 5.5703 7.53086 5.51423C7.81272 5.45817 8.10488 5.48694 8.37039 5.59692C8.63589 5.7069 8.86283 5.89313 9.02249 6.13208C9.18215 6.37103 9.26737 6.65196 9.26737 6.93935C9.26771 7.13026 9.23037 7.31936 9.15747 7.49581C9.08457 7.67225 8.97755 7.83257 8.84256 7.96757C8.70756 8.10256 8.54724 8.20958 8.3708 8.28248C8.19435 8.35538 8.00525 8.39272 7.81434 8.39238ZM19.0392 17.4022C19.0385 17.4554 19.0169 17.5062 18.979 17.5436C18.9412 17.581 18.8901 17.6019 18.8369 17.6019H16.5246C16.4984 17.6019 16.4725 17.5968 16.4482 17.5867C16.424 17.5767 16.402 17.562 16.3834 17.5434C16.3649 17.5249 16.3502 17.5029 16.3402 17.4787C16.3301 17.4544 16.325 17.4285 16.325 17.4022V13.2271C16.325 12.1287 15.9334 11.3878 14.9507 11.3878C14.6445 11.3895 14.3463 11.4859 14.097 11.6637C13.8477 11.8415 13.6595 12.092 13.5581 12.381C13.4889 12.5946 13.4586 12.8188 13.4688 13.0431V17.4022C13.4688 17.4559 13.4475 17.5074 13.4096 17.5453C13.3716 17.5832 13.3202 17.6046 13.2665 17.6046H10.9543C10.9278 17.6046 10.9016 17.5993 10.8772 17.5891C10.8528 17.5789 10.8307 17.564 10.8121 17.5451C10.7935 17.5263 10.7789 17.504 10.769 17.4795C10.7591 17.4549 10.7542 17.4287 10.7546 17.4022C10.7546 16.2934 10.7835 10.9096 10.7546 9.64309C10.7542 9.61665 10.7591 9.5904 10.769 9.56586C10.7789 9.54133 10.7935 9.51901 10.8121 9.50018C10.8307 9.48136 10.8528 9.46642 10.8772 9.45622C10.9016 9.44602 10.9278 9.44077 10.9543 9.44077H13.2612C13.2879 9.44042 13.3144 9.44541 13.3391 9.45545C13.3638 9.46549 13.3862 9.48038 13.4051 9.49924C13.4239 9.5181 13.4388 9.54054 13.4489 9.56525C13.4589 9.58996 13.4639 9.61642 13.4636 9.64309V10.5969C13.7093 10.1702 14.0673 9.81905 14.4985 9.58142C14.9298 9.3438 15.4178 9.22882 15.9098 9.24896C17.6939 9.24896 19.034 10.4156 19.034 12.9275L19.0392 17.4022ZM13.4688 10.6232V10.5943L13.4504 10.6232H13.4688ZM13.4504 10.6232H13.4688V10.5943L13.4504 10.6232ZM13.4504 10.6232H13.4688V10.5943L13.4504 10.6232ZM13.4504 10.6232H13.4688V10.5943L13.4504 10.6232ZM13.4504 10.6232H13.4688V10.5943L13.4504 10.6232ZM13.4504 10.6232H13.4688V10.5943L13.4504 10.6232ZM13.4504 10.6232H13.4688V10.5943L13.4504 10.6232ZM13.4504 10.6232H13.4688V10.5943L13.4504 10.6232ZM13.4504 10.6232H13.4688V10.5943L13.4504 10.6232ZM13.4504 10.6232H13.4688V10.5943L13.4504 10.6232ZM13.4504 10.6232H13.4688V10.5943L13.4504 10.6232ZM13.4504 10.6232H13.4688V10.5943L13.4504 10.6232ZM13.4504 10.6232H13.4688V10.5943L13.4504 10.6232ZM13.4504 10.6232H13.4688V10.5943L13.4504 10.6232ZM13.4504 10.6232H13.4688V10.5943L13.4504 10.6232Z" fill="#676B75" />
    </svg>