<svg width="21" height="20" viewBox="0 0 21 20" fill="none" xmlns="http://www.w3.org/2000/svg">
<path d="M19.5038 10C19.5038 15.1182 15.4127 19.25 10.3872 19.25C5.36164 19.25 1.27051 15.1182 1.27051 10C1.27051 4.88184 5.36164 0.75 10.3872 0.75C15.4127 0.75 19.5038 4.88184 19.5038 10Z" fill="#7386C7" stroke="white" stroke-width="1.5"/>
<path d="M2.3147 9.25C1.90048 9.25 1.5647 9.58579 1.5647 10C1.5647 10.4142 1.90048 10.75 2.3147 10.75L2.3147 9.25ZM15.4026 10.5303C15.6955 10.2374 15.6955 9.76256 15.4026 9.46967L10.6296 4.6967C10.3367 4.40381 9.86187 4.40381 9.56897 4.6967C9.27608 4.98959 9.27608 5.46447 9.56897 5.75736L13.8116 10L9.56897 14.2426C9.27608 14.5355 9.27608 15.0104 9.56897 15.3033C9.86186 15.5962 10.3367 15.5962 10.6296 15.3033L15.4026 10.5303ZM2.3147 10.75L14.8723 10.75L14.8723 9.25L2.3147 9.25L2.3147 10.75Z" fill="white"/>
</svg>
