<svg width="120" height="120" viewBox="0 0 120 120" fill="none" xmlns="http://www.w3.org/2000/svg">
<circle opacity="0.55" cx="60" cy="60" r="60" fill="#F2F2F2"/>
<path opacity="0.2" d="M59.3928 25L31 39.1679C31 48.9024 32.8988 69.8537 38.0982 76.7886L38.1869 76.907C43.3697 83.82 49.6824 92.2403 59.3928 95C61.9926 95 70.3433 90.5443 77.6292 81.97C89.122 68.4453 88.7521 50.7262 88.9688 39.1679L59.3928 25Z" fill="#93B8FF"/>
<rect x="64.9062" y="73.125" width="7.65625" height="7.65625" rx="3.82812" fill="white"/>
<path d="M38.1094 47.2618L44.125 44.9236M77.4844 69.2969C79.3749 62.8708 80.6708 55.356 80.8145 50.0528C80.86 48.3753 79.6927 46.956 78.0789 46.496L72.5625 44.9236" stroke="black" stroke-width="1.5" stroke-linecap="round" stroke-linejoin="round"/>
<path d="M37.0156 51.7968C37.0156 63.2812 40.495 69.0845 42.4844 73.1249" stroke="black" stroke-width="1.5" stroke-linecap="round" stroke-linejoin="round"/>
<path d="M77.4844 69.2969C73.3267 84.5419 64.3736 88.5155 60.5114 90.0132C59.6204 90.3586 58.622 90.432 57.752 90.0367C54.7519 88.6738 52.0377 85.9597 50.6875 84.6094" stroke="black" stroke-width="1.5" stroke-linecap="round" stroke-linejoin="round"/>
<path d="M65.886 54.5312C65.886 59.8284 62.3075 64.1226 57.8932 64.1226C53.4789 64.1226 49.9004 59.8284 49.9004 54.5312C49.9004 54.5312 53.6892 54.966 58.1035 54.966C62.5178 54.966 66.3066 54.5313 65.886 54.5312Z" fill="white"/>
<path d="M66.8737 56.7188H47.4062V48.5863C48.2353 41.6528 51.1248 37.159 57.25 34.8438C57.25 34.8438 61.6324 36.039 64.0035 40.2214C66.3745 44.4038 66.3306 45.1524 66.8737 48.5863C67.3688 51.7169 66.8737 56.7188 66.8737 56.7188Z" fill="white"/>
<path d="M68.1875 56.7188C68.1875 61.5512 64.0251 65.4687 58.8906 65.4687C53.7561 65.4687 49.5938 61.5512 49.5938 56.7188" stroke="black" stroke-width="1.5"/>
<path d="M70.375 56.7188H47.4062V48.1329C48.4102 40.813 51.8789 36.1943 59.2959 33.75C59.2959 33.75 64.6328 34.8862 67.5039 39.3018C70.375 43.7174 70.375 48.1329 70.375 48.1329V56.7188Z" stroke="black" stroke-width="1.5" stroke-linecap="round" stroke-linejoin="round"/>
<path d="M40.8466 79.1334C40.7022 74.6439 46.0797 65.6647 57.3035 65.6647" stroke="black" stroke-width="1.5" stroke-linecap="round" stroke-linejoin="round"/>
<path d="M65.5352 66.8409C65.9332 66.9187 68.3002 67.5671 70.4314 68.7015C72.5626 69.8358 75.2969 73.125 75.2969 73.125" stroke="black" stroke-width="1.5" stroke-linecap="round" stroke-linejoin="round"/>
</svg>
