<svg width="28" height="28" viewBox="0 0 28 28" fill="none" xmlns="http://www.w3.org/2000/svg">
<rect width="28" height="28" rx="14" fill="white"/>
<path d="M11.2681 16.2922H8.12496C7.83229 16.2922 7.64211 16.0209 7.77337 15.7907L10.4395 11.1145L13.1057 6.43828C13.4716 5.79644 14.5153 5.80337 14.8702 6.45L20.2035 15.7937C20.3296 16.0236 20.1393 16.2905 19.8492 16.2905L16.6184 16.2922C16.4562 16.2922 16.3107 16.2046 16.2518 16.0717L14.3581 12.146C14.2293 11.8548 13.7628 11.851 13.6278 12.14L11.632 16.0776C11.5713 16.2075 11.4276 16.2922 11.2681 16.2922Z" fill="black"/>
<path d="M5.5551 20.2918L6.78615 17.8383C6.84781 17.7103 6.99039 17.6273 7.14827 17.6273L20.8319 17.6306C20.9862 17.6306 21.1262 17.71 21.19 17.8335L22.4408 20.2918C22.5592 20.521 22.3688 20.7813 22.0827 20.7813L5.91723 20.7732C5.63544 20.7732 5.44504 20.5201 5.5551 20.2918Z" fill="black"/>
</svg>
