<svg width="120" height="120" viewBox="0 0 120 120" fill="none" xmlns="http://www.w3.org/2000/svg">
<path opacity="0.55" d="M120 60C120 93.1371 93.1371 120 60 120C26.8629 120 0 93.1371 0 60C0 26.8629 26.8629 0 60 0C93.1371 0 120 26.8629 120 60Z" fill="#F2F2F2"/>
<path opacity="0.2" d="M48 43.0001C49.6 41.8001 55.3333 40.1667 58 39.5001C72.4 36.7001 85.3333 44.6667 90 49.0001C91.3333 51.5001 93.4 58.3001 91 65.5001C88.6 72.7001 82.6667 81.1667 80 84.5001H66V82.0001H58L56 84.5001H46.5L48 76.0001C36.5 65.5001 40.3333 54.1667 41.5 48.0001L39 43.0001H48Z" fill="#93B8FF"/>
<path d="M83 30.5C83 36.8513 80 42.5 71.5 40C62 40 60 36.8513 60 30.5C60 24.1487 65.1487 19 71.5 19C77.8513 19 83 24.1487 83 30.5Z" fill="#93B8FF"/>
<path d="M69.4946 34.4381L69.3222 36.1674" stroke="black" stroke-width="1.5" stroke-linecap="round" stroke-linejoin="round"/>
<path d="M71.236 27.5695C70.4953 26.4896 69.3788 26.3434 68.4692 26.9583C67.5596 27.5731 67.1175 29.1709 68.4513 29.9746C69.785 30.7782 70.9381 30.5579 71.3622 31.9763C71.6892 33.0699 70.8208 34.5703 69.1409 34.4028C67.181 34.2074 67.0665 32.5194 67.0996 32.1873" stroke="black" stroke-width="1.5" stroke-linecap="round" stroke-linejoin="round"/>
<path d="M67.6562 20.7716C63.6912 21.4131 60.4762 24.749 60.0467 29.0577C59.6171 33.3664 62.1103 37.2713 65.8706 38.6829M73.129 21.3172C76.8893 22.7288 79.3825 26.6337 78.953 30.9424C78.5234 35.2511 75.3084 38.587 71.3435 39.2284" stroke="black" stroke-width="1.5" stroke-linecap="round" stroke-linejoin="round"/>
<path d="M70.2705 26.6562L70.4429 24.9269" stroke="black" stroke-width="1.5" stroke-linecap="round" stroke-linejoin="round"/>
<circle cx="44.5" cy="53.5" r="1.5" fill="black"/>
<path d="M89 54.5C91.5 54.3334 96.2 53.2 97 50C98 46 96 42.5 94 43C92 43.5 93.1911 47.6147 95.5 49C98 50.5 100.667 49.3334 102 49" stroke="black" stroke-width="1.5" stroke-linecap="round" stroke-linejoin="round"/>
<path d="M82 40.5C84.5 41.8333 90.2 46.2 91 51" stroke="black" stroke-width="1.5" stroke-linecap="round" stroke-linejoin="round"/>
<line x1="19" y1="85.25" x2="103" y2="85.25" stroke="black" stroke-width="1.5"/>
<path d="M55.0001 36.5C53.5001 36.6667 50.1001 37.3 48.5001 38.5C45.0001 37.5 36.5001 36.6 30.5001 41C32.0001 43.1667 35.2001 47.6 36.0001 48C35.3335 49.6667 34.1001 53.3 34.5001 54.5C32.0001 54.5 27.1001 55.8 27.5001 61C27.9001 66.2 31.3334 70.1667 33 71.5H39C40 73 42.5 76.2 44.5 77C44 79.3333 43 83.8 43 85H56.5L58 81.5C59.8333 81.8333 64.1 82.3 66.5 81.5V85H80C84 80.1667 92 68.5 92 58.5" stroke="black" stroke-width="1.5" stroke-linecap="round" stroke-linejoin="round"/>
<path d="M56 40.0181C60 38.8514 70.3 37.7181 79.5 42.5181" stroke="black" stroke-width="1.5" stroke-linecap="round" stroke-linejoin="round"/>
<path d="M60 39.5C57.7755 37.0837 56.5 34.1032 56.5 30.5534C56.5 23.0681 62.0442 17 69.5 17C76.9558 17 83 23.0681 83 30.5534C83 35.5 80.2678 39.0955 76.5 41.5" stroke="black" stroke-width="1.5"/>
</svg>
