<svg width="96" height="96" viewBox="0 0 96 96" fill="none" xmlns="http://www.w3.org/2000/svg">
<circle cx="48" cy="48" r="48" fill="white" fill-opacity="0.5"/>
<path d="M65.7829 37.6528L29.3825 37.6528L29.3825 37.6543C29.35 37.6543 29.318 37.6528 29.2855 37.6528C23.7398 37.6528 19.2441 42.1153 19.2441 47.62C19.2441 53.1247 23.7398 57.5872 29.2855 57.5872C29.318 57.5872 29.3505 57.5862 29.3825 57.5857L29.3825 57.5872L65.7829 57.5872C71.3286 57.5872 75.8242 53.1247 75.8242 47.62C75.8242 42.1153 71.3286 37.6528 65.7829 37.6528Z" fill="url(#paint0_radial_696_28960)"/>
<path d="M40.4029 22.1142L22.1143 40.4027C18.1852 44.3319 18.1852 50.7023 22.1143 54.6314C26.0435 58.5606 32.4139 58.5606 36.343 54.6314L54.6316 36.3429C58.5607 32.4138 58.5607 26.0434 54.6316 22.1142C50.7024 18.1851 44.332 18.1851 40.4029 22.1142Z" fill="url(#paint1_radial_696_28960)"/>
<path d="M58.6573 40.5918L40.3687 58.8803C36.4396 62.8094 36.4396 69.1798 40.3687 73.109C44.2979 77.0381 50.6683 77.0381 54.5974 73.109L72.8859 54.8204C76.8151 50.8913 76.8151 44.5209 72.8859 40.5918C68.9568 36.6626 62.5864 36.6626 58.6573 40.5918Z" fill="url(#paint2_radial_696_28960)"/>
<defs>
<radialGradient id="paint0_radial_696_28960" cx="0" cy="0" r="1" gradientUnits="userSpaceOnUse" gradientTransform="translate(67.6476 37.5932) rotate(151.938) scale(35.4326 30.596)">
<stop stop-color="#FFD8B0"/>
<stop offset="0.359375" stop-color="#FFA3AC"/>
<stop offset="1" stop-color="#FF87CD"/>
</radialGradient>
<radialGradient id="paint1_radial_696_28960" cx="0" cy="0" r="1" gradientUnits="userSpaceOnUse" gradientTransform="translate(47.5347 27.4141) rotate(135) scale(30.0483 34.8928)">
<stop offset="0.25" stop-color="#FF2E79"/>
<stop offset="0.869792" stop-color="#FF8BD1"/>
</radialGradient>
<radialGradient id="paint2_radial_696_28960" cx="0" cy="0" r="1" gradientUnits="userSpaceOnUse" gradientTransform="translate(47.0574 66.7931) rotate(-47.7989) scale(38.0278 24.3211)">
<stop offset="0.130208" stop-color="#FF2B9D"/>
<stop offset="0.723958" stop-color="#FF9BBF"/>
<stop offset="0.958333" stop-color="#FAC7BD"/>
</radialGradient>
</defs>
</svg>
