<svg width="60" height="75" viewBox="0 0 60 75" fill="none" xmlns="http://www.w3.org/2000/svg">
<path d="M0.666504 7.55552L29.9998 0.888855L59.3332 7.55552V32.7887C59.3332 51.4235 47.576 68.0306 29.9998 74.2222C12.4237 68.0306 0.666504 51.4235 0.666504 32.7887V7.55552Z" fill="white"/>
<ellipse cx="22.6665" cy="25.6389" rx="5.5" ry="5.80556" fill="url(#paint0_diamond_3330_399)"/>
<ellipse cx="22.6665" cy="25.6389" rx="5.5" ry="5.80556" fill="url(#paint1_diamond_3330_399)"/>
<ellipse cx="22.6665" cy="25.6389" rx="5.5" ry="5.80556" stroke="#161F36" stroke-width="0.611111"/>
<ellipse cx="37.3335" cy="25.6389" rx="5.5" ry="5.80556" fill="url(#paint2_diamond_3330_399)"/>
<ellipse cx="37.3335" cy="25.6389" rx="5.5" ry="5.80556" fill="url(#paint3_diamond_3330_399)"/>
<ellipse cx="37.3335" cy="25.6389" rx="5.5" ry="5.80556" stroke="#161F36" stroke-width="0.611111"/>
<path d="M31.8333 46.7222L31.131 40.2608C30.6614 35.9401 27.0128 32.6666 22.6667 32.6666C18.3205 32.6666 14.672 35.9401 14.2023 40.2608L13.5 46.7222H31.8333Z" fill="url(#paint4_diamond_3330_399)"/>
<path d="M31.8333 46.7222L31.131 40.2608C30.6614 35.9401 27.0128 32.6666 22.6667 32.6666C18.3205 32.6666 14.672 35.9401 14.2023 40.2608L13.5 46.7222H31.8333Z" fill="url(#paint5_diamond_3330_399)"/>
<path d="M31.8333 46.7222L31.131 40.2608C30.6614 35.9401 27.0128 32.6666 22.6667 32.6666C18.3205 32.6666 14.672 35.9401 14.2023 40.2608L13.5 46.7222H31.8333Z" stroke="#161F36" stroke-width="0.611111" stroke-linecap="round"/>
<path d="M46.4998 46.7222L45.7975 40.2608C45.3279 35.9401 41.6793 32.6666 37.3332 32.6666C32.987 32.6666 29.3385 35.9401 28.8688 40.2608L28.1665 46.7222H46.4998Z" fill="url(#paint6_diamond_3330_399)"/>
<path d="M46.4998 46.7222L45.7975 40.2608C45.3279 35.9401 41.6793 32.6666 37.3332 32.6666C32.987 32.6666 29.3385 35.9401 28.8688 40.2608L28.1665 46.7222H46.4998Z" fill="url(#paint7_diamond_3330_399)"/>
<path d="M46.4998 46.7222L45.7975 40.2608C45.3279 35.9401 41.6793 32.6666 37.3332 32.6666C32.987 32.6666 29.3385 35.9401 28.8688 40.2608L28.1665 46.7222H46.4998Z" stroke="#161F36" stroke-width="0.611111" stroke-linecap="round"/>
<defs>
<radialGradient id="paint0_diamond_3330_399" cx="0" cy="0" r="1" gradientUnits="userSpaceOnUse" gradientTransform="translate(21.0909 16.3258) rotate(84.3799) scale(23.5369 42.4269)">
<stop stop-color="#F0EEE6"/>
<stop offset="0.320836" stop-color="#F5EDEB"/>
<stop offset="1" stop-color="#BAD5F5"/>
</radialGradient>
<radialGradient id="paint1_diamond_3330_399" cx="0" cy="0" r="1" gradientUnits="userSpaceOnUse" gradientTransform="translate(17.1665 19.8333) rotate(46.5482) scale(15.9943 27.7408)">
<stop offset="0.0495704" stop-color="#FFFAF5"/>
<stop offset="0.251493" stop-color="#F7F1F0"/>
<stop offset="1" stop-color="#C8DCF3"/>
</radialGradient>
<radialGradient id="paint2_diamond_3330_399" cx="0" cy="0" r="1" gradientUnits="userSpaceOnUse" gradientTransform="translate(35.7579 16.3258) rotate(84.3799) scale(23.5369 42.4269)">
<stop stop-color="#F0EEE6"/>
<stop offset="0.320836" stop-color="#F5EDEB"/>
<stop offset="1" stop-color="#BAD5F5"/>
</radialGradient>
<radialGradient id="paint3_diamond_3330_399" cx="0" cy="0" r="1" gradientUnits="userSpaceOnUse" gradientTransform="translate(31.8335 19.8333) rotate(46.5482) scale(15.9943 27.7408)">
<stop offset="0.0495704" stop-color="#FFFAF5"/>
<stop offset="0.251493" stop-color="#F7F1F0"/>
<stop offset="1" stop-color="#C8DCF3"/>
</radialGradient>
<radialGradient id="paint4_diamond_3330_399" cx="0" cy="0" r="1" gradientUnits="userSpaceOnUse" gradientTransform="translate(20.0407 28.4207) rotate(82.2842) scale(28.6142 70.4097)">
<stop stop-color="#F0EEE6"/>
<stop offset="0.320836" stop-color="#F5EDEB"/>
<stop offset="1" stop-color="#BAD5F5"/>
</radialGradient>
<radialGradient id="paint5_diamond_3330_399" cx="0" cy="0" r="1" gradientUnits="userSpaceOnUse" gradientTransform="translate(13.5 32.6666) rotate(37.4762) scale(23.1013 38.7499)">
<stop offset="0.0495704" stop-color="#FFFAF5"/>
<stop offset="0.251493" stop-color="#F7F1F0"/>
<stop offset="1" stop-color="#C8DCF3"/>
</radialGradient>
<radialGradient id="paint6_diamond_3330_399" cx="0" cy="0" r="1" gradientUnits="userSpaceOnUse" gradientTransform="translate(34.7072 28.4207) rotate(82.2842) scale(28.6142 70.4097)">
<stop stop-color="#F0EEE6"/>
<stop offset="0.320836" stop-color="#F5EDEB"/>
<stop offset="1" stop-color="#BAD5F5"/>
</radialGradient>
<radialGradient id="paint7_diamond_3330_399" cx="0" cy="0" r="1" gradientUnits="userSpaceOnUse" gradientTransform="translate(28.1665 32.6666) rotate(37.4762) scale(23.1013 38.7499)">
<stop offset="0.0495704" stop-color="#FFFAF5"/>
<stop offset="0.251493" stop-color="#F7F1F0"/>
<stop offset="1" stop-color="#C8DCF3"/>
</radialGradient>
</defs>
</svg>
