<svg width="140" height="36" viewBox="0 0 140 36" fill="none" xmlns="http://www.w3.org/2000/svg">
<path d="M17.6523 21.6178H13.7389C13.3746 21.6178 13.1378 21.2818 13.3012 20.9967L16.6206 15.2056L19.9401 9.41439C20.3957 8.61952 21.695 8.62811 22.1369 9.42891L28.7769 21.0004C28.934 21.2851 28.6971 21.6157 28.3359 21.6157L24.3134 21.6178C24.1115 21.6178 23.9304 21.5093 23.8571 21.3446L21.4994 16.483C21.339 16.1224 20.7581 16.1177 20.5901 16.4756L18.1052 21.3521C18.0297 21.5128 17.8508 21.6178 17.6523 21.6178Z" fill="black"/>
<path d="M10.5394 26.571L12.0721 23.5325C12.1489 23.374 12.3264 23.2711 12.523 23.2711L29.5594 23.2753C29.7514 23.2753 29.9258 23.3736 30.0052 23.5266L31.5625 26.571C31.7099 26.8548 31.4729 27.1771 31.1167 27.1771L10.9903 27.1672C10.6394 27.1672 10.4024 26.8537 10.5394 26.571Z" fill="black"/>
<path d="M40.48 24.169C39.491 24.169 38.6311 24.0289 37.9003 23.7487C37.175 23.463 36.6064 23.0536 36.1943 22.5207C35.7877 21.9877 35.5596 21.3421 35.5102 20.5839L35.502 20.4437H38.3207L38.3371 20.5262C38.3866 20.7789 38.5102 21.0014 38.708 21.1937C38.9113 21.3806 39.1668 21.5289 39.4745 21.6388C39.7877 21.7432 40.1393 21.7954 40.5295 21.7954C40.9306 21.7954 41.274 21.7432 41.5597 21.6388C41.8509 21.5289 42.0762 21.3806 42.2355 21.1937C42.3949 21.0069 42.4745 20.7899 42.4745 20.5426V20.5344C42.4745 20.1937 42.3289 19.9328 42.0377 19.7514C41.7465 19.5701 41.252 19.4108 40.5542 19.2734L39.3344 19.0426C38.1476 18.8229 37.2492 18.4245 36.6393 17.8476C36.0349 17.2706 35.7327 16.5261 35.7327 15.614V15.6058C35.7327 14.8421 35.936 14.1772 36.3426 13.6113C36.7492 13.0453 37.3069 12.6085 38.0157 12.3008C38.73 11.9876 39.5404 11.8311 40.447 11.8311C41.4415 11.8311 42.2877 11.9794 42.9855 12.2761C43.6833 12.5673 44.2218 12.9822 44.6009 13.5206C44.98 14.0536 45.1888 14.68 45.2273 15.3998L45.2355 15.5564H42.4251L42.4168 15.4657C42.3839 15.2074 42.2822 14.9849 42.1119 14.7981C41.9416 14.6113 41.7163 14.4657 41.4361 14.3613C41.1558 14.2569 40.8344 14.2047 40.4718 14.2047C40.1036 14.2047 39.7904 14.2569 39.5322 14.3613C39.274 14.4602 39.0762 14.6003 38.9388 14.7816C38.8069 14.9574 38.741 15.1607 38.741 15.3915V15.3998C38.741 15.7239 38.8866 15.9794 39.1778 16.1662C39.469 16.3476 39.9333 16.5014 40.5707 16.6278L41.7905 16.8586C42.6366 17.0179 43.3317 17.2432 43.8756 17.5344C44.4196 17.8256 44.8234 18.1965 45.0872 18.647C45.3509 19.0921 45.4828 19.6333 45.4828 20.2707V20.2789C45.4828 21.0701 45.285 21.7569 44.8894 22.3394C44.4938 22.9218 43.9223 23.3723 43.1751 23.691C42.4278 24.0097 41.5295 24.169 40.48 24.169Z" fill="black"/>
<path d="M50.6751 24.1196C49.5817 24.1196 48.7768 23.9081 48.2603 23.485C47.7438 23.0564 47.4855 22.3394 47.4855 21.3339V17.0976H46.2575V14.9547H47.4855V12.8778H50.4279V14.9547H52.0515V17.0976H50.4279V20.9135C50.4279 21.2981 50.513 21.5701 50.6834 21.7295C50.8592 21.8888 51.1257 21.9685 51.4828 21.9685C51.6092 21.9685 51.7136 21.9657 51.796 21.9602C51.8839 21.9492 51.9691 21.941 52.0515 21.9355V24.0124C51.8922 24.0399 51.6999 24.0646 51.4746 24.0866C51.2493 24.1086 50.9828 24.1196 50.6751 24.1196Z" fill="black"/>
<path d="M55.9828 24.0784C55.3839 24.0784 54.8565 23.9602 54.4004 23.724C53.9444 23.4877 53.59 23.1663 53.3372 22.7597C53.0845 22.3476 52.9581 21.8806 52.9581 21.3586V21.3421C52.9581 20.7817 53.0982 20.3036 53.3784 19.908C53.6587 19.5124 54.068 19.202 54.6065 18.9767C55.1449 18.7459 55.8015 18.6058 56.5763 18.5564L60.1532 18.3256V20.0152L57.046 20.2295C56.6339 20.2569 56.3263 20.3503 56.123 20.5097C55.9197 20.669 55.818 20.8833 55.818 21.1525V21.1608C55.818 21.441 55.9251 21.658 56.1394 21.8119C56.3592 21.9657 56.6504 22.0427 57.0131 22.0427C57.3208 22.0427 57.5955 21.9877 57.8372 21.8778C58.079 21.7624 58.2686 21.6058 58.4059 21.408C58.5433 21.2047 58.612 20.9767 58.612 20.724V17.9547C58.612 17.6305 58.5076 17.375 58.2988 17.1882C58.09 17.0014 57.7851 16.908 57.384 16.908C56.9883 16.908 56.6779 16.9849 56.4526 17.1388C56.2274 17.2926 56.0872 17.4849 56.0323 17.7157L56.0158 17.7981H53.3784L53.3867 17.691C53.4361 17.1086 53.6284 16.5976 53.9636 16.158C54.3043 15.7184 54.774 15.375 55.3729 15.1278C55.9773 14.8805 56.6971 14.7569 57.5323 14.7569C58.34 14.7569 59.0433 14.886 59.6422 15.1443C60.2411 15.397 60.7054 15.7514 61.0351 16.2075C61.3647 16.6635 61.5296 17.1965 61.5296 17.8064V23.9465H58.612V22.6855H58.546C58.3812 22.9767 58.1724 23.2267 57.9197 23.4355C57.6669 23.6443 57.3785 23.8037 57.0543 23.9135C56.7301 24.0234 56.373 24.0784 55.9828 24.0784Z" fill="black"/>
<path d="M68.7741 24.1278C68.3456 24.1278 67.9527 24.0619 67.5956 23.93C67.2384 23.7927 66.928 23.5976 66.6642 23.3449C66.406 23.0866 66.2054 22.7817 66.0626 22.43H65.9884V23.9465H63.0626V11.9876H65.9884V16.5371H66.0626C66.2109 16.1635 66.4142 15.8448 66.6725 15.5811C66.9362 15.3173 67.2439 15.1168 67.5956 14.9794C67.9527 14.8366 68.3428 14.7651 68.7659 14.7651C69.5241 14.7651 70.1697 14.9492 70.7027 15.3173C71.2357 15.68 71.645 16.2102 71.9307 16.908C72.2165 17.6058 72.3593 18.4492 72.3593 19.4382V19.4465C72.3593 20.4355 72.2165 21.2789 71.9307 21.9767C71.645 22.6745 71.2329 23.2075 70.6945 23.5756C70.1615 23.9438 69.5214 24.1278 68.7741 24.1278ZM67.6945 21.7542C68.0406 21.7542 68.3401 21.6608 68.5928 21.474C68.8456 21.2872 69.0406 21.0234 69.178 20.6828C69.3153 20.3366 69.384 19.9245 69.384 19.4465V19.4382C69.384 18.9602 69.3153 18.5509 69.178 18.2102C69.0406 17.8696 68.8428 17.6086 68.5846 17.4272C68.3318 17.2404 68.0351 17.147 67.6945 17.147C67.3538 17.147 67.0543 17.2404 66.7961 17.4272C66.5433 17.6086 66.3455 17.8723 66.2027 18.2185C66.0598 18.5591 65.9884 18.9685 65.9884 19.4465V19.4547C65.9884 19.9273 66.0598 20.3366 66.2027 20.6828C66.3455 21.0289 66.5433 21.2954 66.7961 21.4822C67.0543 21.6635 67.3538 21.7542 67.6945 21.7542Z" fill="black"/>
<path d="M73.6121 23.9465V11.9876H76.5379V23.9465H73.6121Z" fill="black"/>
<path d="M82.3566 24.1361C81.4116 24.1361 80.5956 23.9493 79.9088 23.5756C79.2275 23.1965 78.7028 22.658 78.3346 21.9602C77.972 21.2569 77.7907 20.4218 77.7907 19.4547V19.4465C77.7907 18.4794 77.972 17.647 78.3346 16.9492C78.7028 16.2459 79.2192 15.7047 79.8841 15.3256C80.5544 14.9465 81.3429 14.7569 82.2495 14.7569C83.1616 14.7569 83.95 14.9437 84.6149 15.3173C85.2797 15.691 85.7935 16.2157 86.1561 16.8915C86.5187 17.5619 86.7001 18.3531 86.7001 19.2652V20.1223H79.2247V18.3915H85.3319L83.972 20.0152V18.886C83.972 18.4465 83.9033 18.0756 83.766 17.7734C83.6286 17.4657 83.4363 17.2349 83.189 17.0811C82.9418 16.9217 82.6533 16.8421 82.3237 16.8421C81.994 16.8421 81.7028 16.9217 81.45 17.0811C81.2028 17.2404 81.0077 17.4739 80.8649 17.7816C80.7275 18.0838 80.6588 18.452 80.6588 18.886V20.0317C80.6588 20.4547 80.7275 20.8174 80.8649 21.1196C81.0077 21.4218 81.2083 21.6553 81.4665 21.8201C81.7302 21.9795 82.0462 22.0591 82.4143 22.0591C82.7275 22.0591 82.994 22.0097 83.2138 21.9108C83.4336 21.8119 83.6066 21.6938 83.733 21.5564C83.8649 21.4135 83.9528 21.2817 83.9967 21.1608L84.005 21.1278L86.6424 21.1196L86.6259 21.2267C86.5545 21.5289 86.4253 21.8503 86.2385 22.191C86.0572 22.5262 85.799 22.8421 85.4638 23.1388C85.1286 23.4355 84.7055 23.6773 84.1945 23.8641C83.6891 24.0454 83.0764 24.1361 82.3566 24.1361Z" fill="black"/>
<path d="M89.3869 24.1113C88.9473 24.1113 88.5764 23.963 88.2742 23.6663C87.9775 23.3641 87.8292 22.9932 87.8292 22.5536C87.8292 22.1196 87.9775 21.7542 88.2742 21.4575C88.5764 21.1553 88.9473 21.0042 89.3869 21.0042C89.8265 21.0042 90.1946 21.1553 90.4913 21.4575C90.7935 21.7542 90.9446 22.1196 90.9446 22.5536C90.9446 22.9932 90.7935 23.3641 90.4913 23.6663C90.1946 23.963 89.8265 24.1113 89.3869 24.1113Z" fill="black"/>
<path d="M96.343 24.1361C95.3924 24.1361 94.5737 23.9493 93.8869 23.5756C93.2056 23.202 92.6809 22.6635 92.3127 21.9602C91.9501 21.2569 91.7688 20.4163 91.7688 19.4382V19.43C91.7688 18.463 91.9528 17.6305 92.321 16.9327C92.6891 16.2349 93.2138 15.6992 93.8952 15.3256C94.5765 14.9465 95.3842 14.7569 96.3182 14.7569C97.1644 14.7569 97.9007 14.9135 98.5271 15.2267C99.1589 15.5344 99.6507 15.9629 100.002 16.5124C100.354 17.0564 100.541 17.6882 100.563 18.408V18.4575H97.8759L97.8677 18.3915C97.8128 17.9685 97.6562 17.6278 97.3979 17.3695C97.1397 17.1058 96.7963 16.9739 96.3677 16.9739C96.027 16.9739 95.7331 17.0728 95.4858 17.2706C95.2441 17.463 95.0573 17.7432 94.9254 18.1113C94.799 18.474 94.7358 18.9163 94.7358 19.4382V19.4547C94.7358 19.9822 94.799 20.43 94.9254 20.7981C95.0573 21.1663 95.2441 21.4465 95.4858 21.6388C95.7276 21.8256 96.0215 21.919 96.3677 21.919C96.7963 21.919 97.1369 21.7954 97.3897 21.5481C97.6479 21.2954 97.8073 20.952 97.8677 20.5179L97.8759 20.4437H100.563V20.4932C100.541 21.191 100.357 21.8146 100.011 22.3641C99.6699 22.9135 99.1864 23.3476 98.56 23.6663C97.9391 23.9795 97.2001 24.1361 96.343 24.1361Z" fill="black"/>
<path d="M104.379 24.0784C103.78 24.0784 103.252 23.9602 102.796 23.724C102.34 23.4877 101.986 23.1663 101.733 22.7597C101.48 22.3476 101.354 21.8806 101.354 21.3586V21.3421C101.354 20.7817 101.494 20.3036 101.774 19.908C102.055 19.5124 102.464 19.202 103.002 18.9767C103.541 18.7459 104.197 18.6058 104.972 18.5564L108.549 18.3256V20.0152L105.442 20.2295C105.03 20.2569 104.722 20.3503 104.519 20.5097C104.316 20.669 104.214 20.8833 104.214 21.1525V21.1608C104.214 21.441 104.321 21.658 104.535 21.8119C104.755 21.9657 105.046 22.0427 105.409 22.0427C105.717 22.0427 105.991 21.9877 106.233 21.8778C106.475 21.7624 106.664 21.6058 106.802 21.408C106.939 21.2047 107.008 20.9767 107.008 20.724V17.9547C107.008 17.6305 106.903 17.375 106.695 17.1882C106.486 17.0014 106.181 16.908 105.78 16.908C105.384 16.908 105.074 16.9849 104.849 17.1388C104.623 17.2926 104.483 17.4849 104.428 17.7157L104.412 17.7981H101.774L101.783 17.691C101.832 17.1086 102.024 16.5976 102.359 16.158C102.7 15.7184 103.17 15.375 103.769 15.1278C104.373 14.8805 105.093 14.7569 105.928 14.7569C106.736 14.7569 107.439 14.886 108.038 15.1443C108.637 15.397 109.101 15.7514 109.431 16.2075C109.761 16.6635 109.925 17.1965 109.925 17.8064V23.9465H107.008V22.6855H106.942C106.777 22.9767 106.568 23.2267 106.316 23.4355C106.063 23.6443 105.774 23.8037 105.45 23.9135C105.126 24.0234 104.769 24.0784 104.379 24.0784Z" fill="black"/>
<path d="M115.349 24.1361C114.458 24.1361 113.706 24.0152 113.09 23.7734C112.475 23.5262 111.997 23.1855 111.656 22.7514C111.316 22.3119 111.112 21.8009 111.046 21.2185L111.038 21.1525H113.873L113.89 21.2185C113.961 21.5152 114.115 21.7487 114.351 21.919C114.593 22.0839 114.928 22.1663 115.357 22.1663C115.615 22.1663 115.835 22.1361 116.016 22.0756C116.203 22.0152 116.346 21.93 116.445 21.8201C116.549 21.7047 116.601 21.5701 116.601 21.4163V21.408C116.601 21.2102 116.519 21.0509 116.354 20.93C116.195 20.8036 115.912 20.6992 115.505 20.6168L113.931 20.3036C113.343 20.1882 112.849 20.0124 112.447 19.7762C112.052 19.5399 111.752 19.2459 111.549 18.8943C111.351 18.5371 111.252 18.1305 111.252 17.6745V17.6663C111.252 17.0673 111.414 16.5509 111.739 16.1168C112.063 15.6827 112.524 15.3476 113.123 15.1113C113.722 14.875 114.431 14.7569 115.25 14.7569C116.118 14.7569 116.846 14.8915 117.434 15.1607C118.027 15.4245 118.475 15.7789 118.777 16.2239C119.085 16.6635 119.244 17.1498 119.255 17.6827V17.7487H116.585L116.577 17.6827C116.544 17.4245 116.415 17.202 116.189 17.0152C115.964 16.8283 115.651 16.7349 115.25 16.7349C115.013 16.7349 114.805 16.7652 114.623 16.8256C114.447 16.886 114.31 16.9739 114.211 17.0893C114.118 17.2047 114.071 17.3421 114.071 17.5014V17.5097C114.071 17.636 114.104 17.7487 114.17 17.8476C114.236 17.9465 114.351 18.0344 114.516 18.1113C114.681 18.1827 114.906 18.2487 115.192 18.3091L116.774 18.6141C117.73 18.8064 118.426 19.1003 118.86 19.4959C119.294 19.886 119.511 20.4163 119.511 21.0866V21.0948C119.511 21.7157 119.335 22.2542 118.983 22.7102C118.632 23.1663 118.143 23.5179 117.516 23.7652C116.895 24.0124 116.173 24.1361 115.349 24.1361Z" fill="black"/>
<path d="M120.673 23.9465V11.9876H123.599V16.5536H123.673C123.893 15.9767 124.23 15.5344 124.687 15.2267C125.148 14.9135 125.717 14.7569 126.393 14.7569C127.052 14.7569 127.612 14.897 128.074 15.1772C128.535 15.452 128.887 15.8476 129.129 16.364C129.376 16.8805 129.5 17.4987 129.5 18.2185V23.9465H126.574V18.8531C126.574 18.3201 126.448 17.9025 126.195 17.6003C125.948 17.2926 125.585 17.1388 125.107 17.1388C124.799 17.1388 124.533 17.213 124.307 17.3613C124.082 17.5042 123.906 17.7047 123.78 17.963C123.659 18.2157 123.599 18.5097 123.599 18.8448V23.9465H120.673Z" fill="black"/>
</svg>
