<svg width="96" height="96" viewBox="0 0 96 96" fill="none" xmlns="http://www.w3.org/2000/svg">
<g clip-path="url(#clip0_1021_103754)">
<path d="M48 96C74.5097 96 96 74.5097 96 48C96 21.4903 74.5097 0 48 0C21.4903 0 0 21.4903 0 48C0 74.5097 21.4903 96 48 96Z" fill="#FF0420"/>
<path d="M34.0032 60.7488C31.1424 60.7488 28.8 60.0768 26.976 58.7328C25.1712 57.3696 24.2688 55.4112 24.2688 52.896C24.2688 52.3584 24.3264 51.7248 24.4416 50.9568C24.7488 49.2288 25.1904 47.1552 25.7664 44.7168C27.3984 38.112 31.6224 34.8096 38.4192 34.8096C40.2624 34.8096 41.9328 35.1168 43.392 35.7504C44.8512 36.3456 46.0032 37.2672 46.848 38.496C47.6928 39.7056 48.1152 41.1456 48.1152 42.816C48.1152 43.3152 48.0576 43.9488 47.9424 44.7168C47.5776 46.848 47.1552 48.9408 46.6368 50.9568C45.792 54.24 44.352 56.7168 42.2784 58.3488C40.224 59.9616 37.4592 60.7488 34.0032 60.7488ZM34.5216 55.5648C35.8656 55.5648 36.9984 55.1616 37.9392 54.3744C38.8992 53.5872 39.5904 52.3776 39.9936 50.7264C40.5504 48.4608 40.9728 46.5024 41.2608 44.8128C41.3568 44.3136 41.4144 43.7952 41.4144 43.2576C41.4144 41.0688 40.2816 39.9744 37.9968 39.9744C36.6528 39.9744 35.5008 40.3776 34.5408 41.1648C33.6 41.952 32.928 43.1616 32.5248 44.8128C32.0832 46.4256 31.6608 48.384 31.2192 50.7264C31.1232 51.2064 31.0656 51.7056 31.0656 52.2432C31.0464 54.4704 32.2176 55.5648 34.5216 55.5648Z" fill="white"/>
<path d="M49.7856 60.4032C49.5168 60.4032 49.3248 60.3264 49.1712 60.1536C49.056 59.9616 49.0176 59.7504 49.056 59.5008L54.0288 36.0768C54.0672 35.808 54.2016 35.5968 54.432 35.424C54.6432 35.2512 54.8736 35.1744 55.1232 35.1744H64.704C67.3728 35.1744 69.504 35.7312 71.1168 36.8256C72.7488 37.9392 73.5744 39.5328 73.5744 41.6256C73.5744 42.2208 73.4976 42.8544 73.3632 43.5072C72.768 46.272 71.5584 48.3072 69.7152 49.632C67.9104 50.9568 65.4336 51.6096 62.2848 51.6096H57.4272L55.776 59.5008C55.7184 59.7696 55.6032 59.9808 55.3728 60.1536C55.1616 60.3264 54.9312 60.4032 54.6816 60.4032H49.7856ZM62.5344 46.6368C63.552 46.6368 64.416 46.368 65.1648 45.8112C65.9328 45.2544 66.432 44.4672 66.6816 43.4304C66.7584 43.0272 66.7968 42.6624 66.7968 42.3552C66.7968 41.664 66.5856 41.1264 66.1824 40.7616C65.7792 40.3776 65.0688 40.1856 64.0896 40.1856H59.7696L58.4064 46.6368H62.5344Z" fill="white"/>
</g>
<defs>
<clipPath id="clip0_1021_103754">
<rect width="96" height="96" fill="white"/>
</clipPath>
</defs>
</svg>
