<svg width="153" height="34" viewBox="0 0 153 34" fill="none" xmlns="http://www.w3.org/2000/svg">
<path d="M26.4723 11.8085L7.49738 11.8085L7.49738 11.8092C7.48043 11.8092 7.46373 11.8085 7.44678 11.8085C4.55591 11.8085 2.2124 14.1347 2.2124 17.0042C2.2124 19.8737 4.55591 22.1999 7.44678 22.1999C7.46373 22.1999 7.48068 22.1994 7.49738 22.1992L7.49738 22.1999L26.4723 22.1999C29.3632 22.1999 31.7067 19.8737 31.7067 17.0042C31.7067 14.1347 29.3632 11.8085 26.4723 11.8085Z" fill="url(#paint0_radial_1026_15353)"/>
<path d="M13.2421 3.70857L3.70859 13.2421C1.66039 15.2903 1.66039 18.6111 3.7086 20.6593C5.7568 22.7075 9.07758 22.7075 11.1258 20.6593L20.6593 11.1258C22.7075 9.07756 22.7075 5.75677 20.6593 3.70857C18.6111 1.66037 15.2903 1.66037 13.2421 3.70857Z" fill="url(#paint1_radial_1026_15353)"/>
<path d="M22.7577 13.3407L13.2242 22.8742C11.176 24.9224 11.176 28.2432 13.2242 30.2914C15.2724 32.3396 18.5932 32.3396 20.6414 30.2914L30.1749 20.7578C32.2231 18.7096 32.2231 15.3889 30.1749 13.3406C28.1267 11.2924 24.8059 11.2924 22.7577 13.3407Z" fill="url(#paint2_radial_1026_15353)"/>
<path d="M83.5972 22.6393C82.5193 22.6393 81.4432 22.2071 81.4432 20.0531V10.573L81.228 10.3578H79.5045L79.2893 10.573V20.0531C79.2893 23.2849 81.228 24.578 83.5989 24.578H84.0294L84.2446 24.3628V22.8545L84.0294 22.6393H83.5989H83.5972Z" fill="black"/>
<path d="M121.546 22.6393C120.469 22.6393 119.392 22.2071 119.392 20.0531V10.573L119.177 10.3578H117.454L117.239 10.573V20.0531C117.239 23.2849 119.177 24.578 121.548 24.578H121.979L122.194 24.3628V22.8545L121.979 22.6393H121.548H121.546Z" fill="black"/>
<path d="M128.841 22.6393C127.763 22.6393 126.687 22.2071 126.687 20.0531V10.573L126.471 10.3578H124.748L124.533 10.573V20.0531C124.533 23.2849 126.471 24.578 128.842 24.578H129.273L129.488 24.3628V22.8545L129.273 22.6393H128.842H128.841Z" fill="black"/>
<path d="M115.204 22.6392C114.126 22.6392 113.05 22.207 113.05 20.0531V18.1143C113.05 14.8826 111.757 13.3743 108.525 13.3743C105.293 13.3743 104 14.8826 104 16.6061L104.215 16.8213H105.939L106.154 16.6061C106.154 15.7434 107.017 15.313 108.523 15.313C110.03 15.313 110.894 15.7434 110.894 17.2517V17.6821L110.679 17.8973C110.679 17.8973 109.816 17.6821 108.525 17.6821C105.724 17.6821 103.57 18.5448 103.57 21.1291C103.57 23.5001 105.078 24.5761 107.447 24.5761C109.816 24.5761 111.504 23.0074 111.504 23.0074H111.712C112.497 24.0977 113.77 24.5761 115.204 24.5761H115.303L115.518 24.3609V22.8526L115.303 22.6374H115.204V22.6392ZM110.894 20.4835C110.894 21.5613 109.601 22.6374 107.877 22.6374C106.584 22.6374 105.724 22.4222 105.724 21.1291C105.724 19.8361 106.801 19.4056 108.74 19.4056C110.033 19.4056 110.679 19.6208 110.679 19.6208L110.894 19.8361V20.4817V20.4835Z" fill="black"/>
<path d="M77.4223 22.6406C76.3445 22.6406 75.2684 22.2084 75.2684 20.0545V13.8062L75.055 13.5909H73.3315L73.1162 13.8062V19.1919C73.1162 21.5628 71.8232 22.6389 70.3149 22.6389C68.5914 22.6389 67.944 21.3458 67.944 20.0527V13.8062L67.7288 13.5909H66.0053L65.79 13.8062V20.0545C65.79 22.4254 67.0831 24.5794 70.0997 24.5794C72.0384 24.5794 73.7103 23.0106 73.7103 23.0106H73.9255V23.0053C74.7117 24.0991 75.987 24.5776 77.4223 24.5776H77.5219L77.7371 24.3624V22.8541L77.5219 22.6389H77.4223V22.6406Z" fill="black"/>
<path d="M45.348 24.5783C41.7605 24.5783 39.4412 22.8904 39.4412 19.7262L39.6528 19.5145H41.339L41.5506 19.7262C41.5506 21.8356 43.0269 22.6787 45.5579 22.6787C47.4557 22.6787 48.932 22.0455 48.932 20.3576C48.932 18.4598 47.6656 18.0382 44.713 17.6149C41.7605 17.1916 39.8627 15.9288 39.8627 13.3978C39.8627 11.5 41.339 9.3905 45.1364 9.3905C48.3006 9.3905 50.6199 10.6569 50.6199 13.8193L50.4082 14.031H48.7203L48.5087 13.8193C48.5087 12.1314 47.6656 11.2883 44.9229 11.2883C43.0251 11.2883 41.9704 12.1314 41.9704 13.3978C41.9704 15.0857 43.0251 15.5072 45.9777 15.9288C48.9302 16.3503 51.0397 17.405 51.0397 20.3576C51.0397 22.6787 49.3517 24.5765 45.3445 24.5765L45.348 24.5783Z" fill="black"/>
<path d="M58.1201 24.5782C54.9559 24.5782 52.8464 22.4687 52.8464 19.0946C52.8464 15.7205 54.9559 13.6111 58.1201 13.6111H58.3318C61.4959 13.6111 63.6054 15.7205 63.6054 19.0946C63.6054 22.4687 61.4959 24.5782 58.3318 24.5782H58.1201ZM58.3318 22.6804C60.2296 22.6804 61.4959 21.414 61.4959 19.0946C61.4959 16.7753 60.2296 15.5089 58.3318 15.5089H58.1201C56.2223 15.5089 54.9559 16.7753 54.9559 19.0946C54.9559 21.414 56.2223 22.6804 58.1201 22.6804H58.3318Z" fill="black"/>
<path d="M98.9899 24.1907L98.7782 24.4024H96.8804L96.6688 24.1907L95.4042 14.2766H95.1925L93.9261 24.1907L93.7145 24.4024H91.8166L91.605 24.1907L89.2856 11.324V9.84777L89.4973 9.63611H90.9736L91.1852 9.84777L92.6615 19.7619H92.8732L94.1378 9.84777L94.3494 9.63611H96.2472L96.4589 9.84777L97.7253 19.7619H97.9369L99.4132 9.84777L99.6249 9.63611H101.101L101.313 9.84777V11.324L98.9917 24.1907H98.9899Z" fill="black"/>
<path d="M130.891 19.0928C130.891 16.1403 132.367 13.6093 135.953 13.6093C139.539 13.6093 141.015 16.1403 141.015 19.0928V19.726L140.804 19.9376H133.42L133.209 20.1493C133.209 20.5708 133.42 22.6803 136.161 22.6803C137.216 22.6803 138.059 22.4686 138.481 21.4139L138.692 21.2023H140.38L140.592 21.4139C140.38 23.1018 138.904 24.5781 136.163 24.5781C132.577 24.5781 130.889 22.2588 130.889 19.0946L130.891 19.0928ZM138.696 18.0381C138.696 17.4049 138.484 15.5071 135.953 15.5071C133.422 15.5071 133.211 17.4049 133.211 18.0381L133.422 18.2497H138.484L138.696 18.0381Z" fill="black"/>
<path d="M144.451 15.9291L144.239 15.7174H142.551L142.339 15.5057V14.0295L142.551 13.8178H144.239L144.451 13.6062V10.8671L144.662 10.6554H146.35L146.562 10.8671V13.6097L146.773 13.8214H150.359L150.571 14.033V15.5093L150.359 15.721H146.773L146.562 15.9326V20.1515C146.562 22.261 147.617 22.6825 148.671 22.6825C149.514 22.6825 150.569 22.261 150.569 20.7847V20.3632L150.781 20.1515H152.469L152.68 20.3632V20.7847C152.68 23.7373 150.359 24.5821 148.673 24.5821C146.352 24.5821 144.454 23.3175 144.454 20.1533V15.9344L144.451 15.9291Z" fill="black"/>
<defs>
<radialGradient id="paint0_radial_1026_15353" cx="0" cy="0" r="1" gradientUnits="userSpaceOnUse" gradientTransform="translate(27.4443 11.7774) rotate(151.938) scale(18.4705 15.9492)">
<stop stop-color="#FFD8B0"/>
<stop offset="0.359375" stop-color="#FFA3AC"/>
<stop offset="1" stop-color="#FF87CD"/>
</radialGradient>
<radialGradient id="paint1_radial_1026_15353" cx="0" cy="0" r="1" gradientUnits="userSpaceOnUse" gradientTransform="translate(16.9598 6.47131) rotate(135) scale(15.6637 18.1891)">
<stop offset="0.25" stop-color="#FF2E79"/>
<stop offset="0.869792" stop-color="#FF8BD1"/>
</radialGradient>
<radialGradient id="paint2_radial_1026_15353" cx="0" cy="0" r="1" gradientUnits="userSpaceOnUse" gradientTransform="translate(16.7109 26.999) rotate(-47.7989) scale(19.8233 12.6782)">
<stop offset="0.130208" stop-color="#FF2B9D"/>
<stop offset="0.723958" stop-color="#FF9BBF"/>
<stop offset="0.958333" stop-color="#FAC7BD"/>
</radialGradient>
</defs>
</svg>
